<svg xmlns="http://www.w3.org/2000/svg" viewBox="0 0 100 100">
  <path d="M50 50c0-5.5 4.5-10 10-10s10 4.5 10 10-4.5 10-10 10-10-4.5-10-10zm-15 0c0-13.8 11.2-25 25-25s25 11.2 25 25-11.2 25-25 25-25-11.2-25-25zm-15 0c0-22.1 17.9-40 40-40s40 17.9 40 40-17.9 40-40 40-40-17.9-40-40z" fill="none" stroke="#10b981" stroke-width="4">
    <animateTransform attributeName="transform" type="rotate" from="0 50 50" to="360 50 50" dur="10s" repeatCount="indefinite" />
  </path>
  <path d="M50 50c0-2.8 2.2-5 5-5s5 2.2 5 5-2.2 5-5 5-5-2.2-5-5z" fill="#10b981" />
</svg>
